<?xml version="1.0" encoding="utf-8"?>
<!-- Generator: Adobe Illustrator 25.3.1, SVG Export Plug-In . SVG Version: 6.00 Build 0)  -->
<svg version="1.1" id="레이어_1" xmlns="http://www.w3.org/2000/svg" xmlns:xlink="http://www.w3.org/1999/xlink" x="0px"
	 y="0px" viewBox="0 0 100 100" style="enable-background:new 0 0 100 100;" xml:space="preserve">
<style type="text/css">
	.st0{fill:#303030;}
</style>
<g id="XMLID_7861_">
	<g>
		<g id="XMLID_32_">
			<path id="XMLID_33_" class="st0" d="M20.7,53.1c0-1.5,0.6-3.1,1.8-4.2c2.3-2.3,6.1-2.3,8.5,0l18.8,18.7l18.8-18.7
				c2.3-2.3,6.1-2.3,8.5,0c2.3,2.3,2.3,6.1,0,8.5L49.6,84.6L22.4,57.4C21.2,56.2,20.7,54.7,20.7,53.1z"/>
		</g>
		<g id="XMLID_30_">
			<path id="XMLID_31_" class="st0" d="M43.6,76.1V22c0-3.3,2.7-6,6-6s6,2.7,6,6v54.1c0,3.3-2.7,6-6,6S43.6,79.4,43.6,76.1z"/>
		</g>
	</g>
</g>
</svg>
